<svg xmlns="http://www.w3.org/2000/svg" viewBox="0 0 64 64"><path fill="#f5c872" d="M32,16V32H2.2a1,1,0,0,1-.75-1.66l11.35-13a4,4,0,0,1,3-1.37Z"/><path fill="#e0678f" d="M48,32H32V2.2a1,1,0,0,1,1.66-.75l13,11.35a4,4,0,0,1,1.37,3Z"/><path fill="#ed7899" d="M47.71,14.32,32,32V2.2a1,1,0,0,1,1.66-.75l13,11.35a4,4,0,0,1,1.37,3Z"/><path fill="#f6d397" d="M15,17,32,32H2.2a1,1,0,0,1-.75-1.66l11.35-13a4,4,0,0,1,3-1.37Z"/><path fill="#7bbeeb" d="M62.55,33.66l-11.35,13a4,4,0,0,1-3,1.37H32V32H61.8A1,1,0,0,1,62.55,33.66Z"/><path fill="#85cbf8" d="M62.55,33.66l-11.35,13a4,4,0,0,1-3,1.37l.89-.51L32,32H61.8A1,1,0,0,1,62.55,33.66Z"/><path fill="#5dbc9d" d="M30.34,62.55l-13-11.35a4,4,0,0,1-1.37-3V32H32V61.8A1,1,0,0,1,30.34,62.55Z"/><path fill="#72caaf" d="M30.34,62.55l-13-11.35a4,4,0,0,1-1.37-3L17,49,32,32V61.8A1,1,0,0,1,30.34,62.55Z"/><path fill="#fff" d="M32 28A4 4 0 1 0 32 36A4 4 0 1 0 32 28Z"/><path fill="#8d6c9f" d="M63.62,32.17A2,2,0,0,0,61.8,31H49V15.81A5,5,0,0,0,47.29,12L34.32.7A2,2,0,0,0,31,2.2V15H15.82A5,5,0,0,0,12,16.71L.7,29.68A2,2,0,0,0,2.2,33H15V48.19A5,5,0,0,0,16.71,52l13,11.35a2,2,0,0,0,1.31.5,2.08,2.08,0,0,0,.84-.18A2,2,0,0,0,33,61.8V49H48.18A5,5,0,0,0,52,47.29l11.35-13A2,2,0,0,0,63.62,32.17ZM33,2.2,46,13.56a3,3,0,0,1,1,2.25V31H36.9A5,5,0,0,0,36,29l4.94-5.6a1,1,0,1,0-1.5-1.32l-4.94,5.6A4.89,4.89,0,0,0,33,27.1V2.2ZM35,32a2.77,2.77,0,0,1-.18,1,.37.37,0,0,1,0,.11,2.93,2.93,0,0,1-1.32,1.5,2.31,2.31,0,0,1-.45.21,2.87,2.87,0,0,1-2,0l-.12,0a3,3,0,0,1-1.5-1.32,2.67,2.67,0,0,1-.2-.46,2.87,2.87,0,0,1,0-2,.37.37,0,0,1,0-.11,2.9,2.9,0,0,1,1.32-1.5,1.85,1.85,0,0,1,.45-.21A2.77,2.77,0,0,1,32,29a2.81,2.81,0,0,1,1,.18l.12,0a3,3,0,0,1,1.5,1.32,2.67,2.67,0,0,1,.2.46A2.77,2.77,0,0,1,35,32ZM31,17V27.1A5,5,0,0,0,29,28L16.51,17ZM2.2,31,5,27.8V28a1,1,0,0,0,2,0V26a1,1,0,0,0-.08-.39L13.56,18a2.61,2.61,0,0,1,.59-.51.72.72,0,0,0,.19.24L27.67,29.51A4.9,4.9,0,0,0,27.1,31H2.2Zm24.9,2A5,5,0,0,0,28,35L17,47.49V33ZM31,61.8,18,50.44a2.61,2.61,0,0,1-.51-.59.72.72,0,0,0,.24-.19L29.51,36.33A4.8,4.8,0,0,0,31,36.9V49h0ZM33,47V36.9A4.85,4.85,0,0,0,35,36L47.49,47ZM61.8,33,59,36.2V36a1,1,0,0,0-2,0v2a1,1,0,0,0,.08.39L50.44,46a3,3,0,0,1-.59.51.72.72,0,0,0-.19-.24L36.34,34.49A5.15,5.15,0,0,0,36.9,33H61.8Z"/><path fill="#8d6c9f" d="M42.76 20.8a1 1 0 0 0 .75-.34l2-2.26A1 1 0 0 0 44 16.88l-2 2.26a1 1 0 0 0 .75 1.66zM43 35a1 1 0 0 0-1 1v2a1 1 0 0 0 2 0V36A1 1 0 0 0 43 35zM48 35a1 1 0 0 0-1 1v2a1 1 0 0 0 2 0V36A1 1 0 0 0 48 35zM53 39a1 1 0 0 0 1-1V36a1 1 0 0 0-2 0v2A1 1 0 0 0 53 39zM11 25a1 1 0 0 0-1 1v2a1 1 0 0 0 2 0V26A1 1 0 0 0 11 25zM16 25a1 1 0 0 0-1 1v2a1 1 0 0 0 2 0V26A1 1 0 0 0 16 25zM21 25a1 1 0 0 0-1 1v2a1 1 0 0 0 2 0V26A1 1 0 0 0 21 25z"/></svg>